<svg xmlns="http://www.w3.org/2000/svg" width="40" height="132" viewBox="0 0 40 132">
  <g id="pin" transform="translate(1030.915 1182.268)">
    <path id="Icon_awesome-map-pin" data-name="Icon awesome-map-pin" d="M14.379,40.69V60.806l2.827,4.239a1.541,1.541,0,0,0,2.564,0L22.6,60.806V40.69a21.677,21.677,0,0,1-8.217,0ZM18.487,0A18.487,18.487,0,1,0,36.974,18.487,18.487,18.487,0,0,0,18.487,0Zm0,9.757a8.739,8.739,0,0,0-8.73,8.73,1.541,1.541,0,1,1-3.081,0A11.825,11.825,0,0,1,18.487,6.676a1.541,1.541,0,0,1,0,3.081Z" transform="translate(-1029.402 -1180.174)"/>
    <rect id="Rectangle_1970" data-name="Rectangle 1970" width="40" height="132" transform="translate(-1030.915 -1182.268)" fill="none"/>
  </g>
</svg>
